<?xml version="1.0" encoding="UTF-8"?>
<svg width="20px" height="15px" viewBox="0 0 20 15" version="1.1" xmlns="http://www.w3.org/2000/svg" xmlns:xlink="http://www.w3.org/1999/xlink">
    <!-- Generator: Sketch 55 (78076) - https://sketchapp.com -->
    <title>email campaigns</title>
    <desc>Created with Sketch.</desc>
    <g id="Dashboard" stroke="none" stroke-width="1" fill="none" fill-rule="evenodd">
        <g id="Dashboard---light-with-alert" transform="translate(-38.000000, -323.000000)">
            <g id="side-menu" transform="translate(20.000000, 57.000000)">
                <g id="activities" transform="translate(0.000000, 41.000000)">
                    <g id="email-campaigns" transform="translate(15.000000, 220.000000)">
                        <g>
                            <rect id="Rectangle-Copy-4" fill-opacity="0" fill="#D8D8D8" x="0" y="0" width="25" height="25"></rect>
                            <g id="mail" transform="translate(3.000000, 5.000000)">
                                <g id="Group" transform="translate(3.125000, 6.875000)"></g>
                                <path d="M17.82,14.080625 L1.5625,14.080625 C0.70125,14.080625 0,13.38 0,12.518125 L0,1.86375 C0,1.001875 0.70125,0.30125 1.5625,0.30125 L17.82,0.30125 C18.68125,0.30125 19.3825,1.001875 19.3825,1.86375 L19.3825,12.518125 C19.3825,13.38 18.68125,14.080625 17.82,14.080625 Z M1.5625,0.92625 C1.045625,0.92625 0.625,1.346875 0.625,1.86375 L0.625,12.518125 C0.625,13.035 1.045625,13.455625 1.5625,13.455625 L17.82,13.455625 C18.336875,13.455625 18.7575,13.035 18.7575,12.518125 L18.7575,1.86375 C18.7575,1.346875 18.336875,0.92625 17.82,0.92625 L1.5625,0.92625 Z M15.693125,10.94375 C15.61625,10.94375 15.539375,10.915625 15.479375,10.85875 L11.883125,7.485 C11.7575,7.3675 11.75125,7.169375 11.869375,7.04375 C11.9875,6.916875 12.184375,6.91125 12.31125,7.03 L15.9075,10.40375 C16.033125,10.52125 16.039375,10.719375 15.92125,10.845 C15.859375,10.910625 15.776875,10.94375 15.693125,10.94375 Z M3.68875,10.94375 C3.605625,10.94375 3.5225,10.910625 3.460625,10.845 C3.3425,10.719375 3.34875,10.52125 3.474375,10.40375 L7.071875,7.03 C7.198125,6.9125 7.39625,6.9175 7.51375,7.04375 C7.631875,7.169375 7.625625,7.3675 7.5,7.485 L3.9025,10.85875 C3.8425,10.915625 3.765625,10.94375 3.68875,10.94375 Z M9.69125,8.76125 C9.275625,8.76125 8.86,8.623125 8.54375,8.3475 L0.51875,1.346875 C0.38875,1.23375 0.375,1.03625 0.488125,0.905625 C0.6025,0.775625 0.799375,0.76375 0.929375,0.875625 L8.954375,7.875625 C9.35375,8.22375 10.02875,8.22375 10.4275,7.875625 L18.4425,0.886875 C18.571875,0.77375 18.76875,0.78625 18.88375,0.916875 C18.996875,1.0475 18.98375,1.244375 18.85375,1.358125 L10.83875,8.346875 C10.521875,8.623125 10.106875,8.76125 9.69125,8.76125 Z" id="Shape" fill="#4A4A4A" fill-rule="nonzero"></path>
                            </g>
                        </g>
                    </g>
                </g>
            </g>
        </g>
    </g>
</svg>