<?xml version="1.0" encoding="UTF-8"?>
<svg width="18px" height="18px" viewBox="0 0 18 18" version="1.1" xmlns="http://www.w3.org/2000/svg" xmlns:xlink="http://www.w3.org/1999/xlink">
    <!-- Generator: Sketch 54.1 (76490) - https://sketchapp.com -->
    <title>events</title>
    <desc>Created with Sketch.</desc>
    <g id="Dashboard" stroke="none" stroke-width="1" fill="none" fill-rule="evenodd">
        <g id="Dashboard---light-Copy" transform="translate(-64.000000, -232.000000)">
            <g id="side-menu" transform="translate(20.000000, 57.000000)">
                <g id="activities" transform="translate(0.000000, 41.000000)">
                    <g id="events" transform="translate(40.000000, 130.000000)">
                        <g id="events---not-selected">
                            <g id="events">
                                <rect id="Rectangle-Copy-3" fill-opacity="0" fill="#D8D8D8" x="0" y="0" width="25" height="25"></rect>
                                <g id="calendar-(7)" transform="translate(4.000000, 4.000000)" fill="#297C81" fill-rule="nonzero">
                                    <path d="M15.4166225,6 L2.5833433,6 C2.26116635,6 2,6.26336107 2,6.58824543 L2,15.4117546 C2,15.7366389 2.26116635,16 2.5833433,16 L15.4166567,16 C15.7388336,16 16,15.7366389 16,15.4117546 L16,6.58824543 C15.9999658,6.26336107 15.7387995,6 15.4166225,6 Z M5.49999146,15.4117546 L2.5833433,15.4117546 L2.5833433,13.6470527 L5.49999146,13.6470527 L5.49999146,15.4117546 Z M5.49999146,13.0588073 L2.5833433,13.0588073 L2.5833433,11.2941055 L5.49999146,11.2941055 L5.49999146,13.0588073 Z M5.49999146,10.7058945 L2.5833433,10.7058945 L2.5833433,8.94119269 L5.49999146,8.94119269 L5.49999146,10.7058945 Z M5.49999146,8.35294726 L2.5833433,8.35294726 L2.5833433,6.58824543 L5.49999146,6.58824543 L5.49999146,8.35294726 Z M8.70832835,15.4117546 L6.08333476,15.4117546 L6.08333476,13.6470527 L8.70832835,13.6470527 L8.70832835,15.4117546 L8.70832835,15.4117546 Z M8.70832835,13.0588073 L6.08333476,13.0588073 L6.08333476,11.2941055 L8.70832835,11.2941055 L8.70832835,13.0588073 L8.70832835,13.0588073 Z M8.70832835,10.7058945 L6.08333476,10.7058945 L6.08333476,8.94119269 L8.70832835,8.94119269 L8.70832835,10.7058945 L8.70832835,10.7058945 Z M8.70832835,8.35294726 L6.08333476,8.35294726 L6.08333476,6.58824543 L8.70832835,6.58824543 L8.70832835,8.35294726 L8.70832835,8.35294726 Z M11.9166311,15.4117546 L9.29163747,15.4117546 L9.29163747,13.6470527 L11.9166311,13.6470527 L11.9166311,15.4117546 Z M11.9166311,13.0588073 L9.29163747,13.0588073 L9.29163747,11.2941055 L11.9166311,11.2941055 L11.9166311,13.0588073 Z M11.9166311,10.7058945 L9.29163747,10.7058945 L9.29163747,8.94119269 L11.9166311,8.94119269 L11.9166311,10.7058945 Z M11.9166311,8.35294726 L9.29163747,8.35294726 L9.29163747,6.58824543 L11.9166311,6.58824543 L11.9166311,8.35294726 Z M15.4166225,15.4117546 L12.4999744,15.4117546 L12.4999744,13.6470527 L15.4166225,13.6470527 L15.4166225,15.4117546 L15.4166225,15.4117546 Z M15.4166225,13.0588073 L12.4999744,13.0588073 L12.4999744,11.2941055 L15.4166225,11.2941055 L15.4166225,13.0588073 L15.4166225,13.0588073 Z M15.4166225,10.7058945 L12.4999744,10.7058945 L12.4999744,8.94119269 L15.4166225,8.94119269 L15.4166225,10.7058945 L15.4166225,10.7058945 Z M15.4166225,8.35294726 L12.4999744,8.35294726 L12.4999744,6.58824543 L15.4166225,6.58824543 L15.4166225,8.35294726 Z M17.1,0.9 C17.5970742,0.9 18,1.30296094 18,1.8 L18,17.1 C18,17.5970742 17.5970391,18 17.1,18 L0.9,18 C0.402925781,18 0,17.5970742 0,17.1 L0,1.8 C0,1.30296094 0.402925781,0.9 0.9,0.9 L1.50001172,0.9 L1.50001172,0.299988281 C1.50001172,0.134296875 1.63430859,0 1.8,0 C1.96569141,0 2.09998828,0.134296875 2.10002344,0.299988281 L2.10002344,0.9 L3.90002344,0.9 L3.90002344,0.299988281 C3.90002344,0.134296875 4.03432031,0 4.20001172,0 C4.36570313,0 4.5,0.134296875 4.5,0.299988281 L4.5,0.9 L6.3,0.9 L6.3,0.299988281 C6.3,0.134296875 6.43433203,0 6.60002344,0 C6.76571484,0 6.90001172,0.134296875 6.90001172,0.299988281 L6.90001172,0.9 L8.70001172,0.9 L8.70001172,0.299988281 C8.70001172,0.134296875 8.83430859,0 9,0 C9.16569141,0 9.29998828,0.134296875 9.30002344,0.299988281 L9.30002344,0.9 L11.1000234,0.9 L11.1000234,0.299988281 C11.1000234,0.134296875 11.2343203,0 11.4000117,0 C11.5657031,0 11.7,0.134296875 11.7,0.299988281 L11.7,0.9 L13.5,0.9 L13.5,0.299988281 C13.5,0.134296875 13.634332,0 13.8000234,0 C13.9656797,0 14.1000117,0.134296875 14.1000117,0.299988281 L14.1000117,0.9 L15.9000117,0.9 L15.9000117,0.299988281 C15.9000117,0.134296875 16.0343086,0 16.2,0 C16.3656914,0 16.4999883,0.134296875 16.4999883,0.299988281 L16.4999883,0.9 L17.1,0.9 Z M17.3999883,17.1 L17.3999883,1.8 C17.3999883,1.63430859 17.2656914,1.50001172 17.1,1.50001172 L0.9,1.50001172 C0.734308594,1.50001172 0.600011719,1.63430859 0.600011719,1.8 L0.600011719,3.60003516 L15.0000117,3.60003516 C15.1657031,3.60003516 15.3,3.73433203 15.3,3.90002344 C15.3,4.06571484 15.1657031,4.20001172 15.0000117,4.20001172 L0.600011719,4.20001172 L0.600011719,17.1 C0.600011719,17.2656914 0.734308594,17.3999883 0.9,17.3999883 L17.1,17.3999883 C17.2656914,17.3999883 17.3999883,17.2656914 17.3999883,17.1 Z M1.14705133,2.13960878 C1.34638225,1.95346374 1.65359186,1.95346374 1.85292278,2.13960878 C1.99633386,2.28353658 2.03943874,2.50099078 1.96196646,2.68978914 C1.88449419,2.8785875 1.70193922,3.00117082 1.49998706,2.99999157 C1.29803489,3.00117082 1.11542168,2.8785875 1.03800765,2.68978914 C0.960593626,2.50099078 1.00364025,2.28353658 1.14705133,2.13960878 Z M4.1450024,2.1392613 C4.34598313,1.95357957 4.65401687,1.95357957 4.8549976,2.1392613 C5.04906413,2.33689958 5.0482438,2.65599751 4.85306397,2.85257036 C4.65794273,3.04914321 4.34211586,3.04914321 4.14693603,2.85257036 C3.9517562,2.65599751 3.95093587,2.33695877 4.1450024,2.1392613 Z M6.1449939,2.1392613 C6.34596286,1.95357957 6.65397855,1.95357957 6.8550061,2.1392613 C7.04906126,2.33689958 7.04824098,2.65599751 6.85307258,2.85257036 C6.65790418,3.04914321 6.34209582,3.04914321 6.14692742,2.85257036 C5.95175902,2.65599751 5.95093874,2.33695877 6.1449939,2.1392613 Z M8.14500557,2.1392613 C8.34599071,1.95357957 8.65408979,1.95357957 8.85501632,2.1392613 C9.0490871,2.33689958 9.04820816,2.65599751 8.85308265,2.85257036 C8.65795714,3.04914321 8.34212335,3.04914321 8.14693925,2.85257036 C7.95175514,2.65599751 7.95093479,2.33695877 8.14500557,2.1392613 Z M11.1450056,2.1392613 C11.3459907,1.95357957 11.6540312,1.95357957 11.8550163,2.1392613 C12.0490871,2.33689958 12.0482082,2.65599751 11.8530826,2.85257036 C11.6579571,3.04914321 11.3421234,3.04914321 11.1469392,2.85257036 C10.9517551,2.65599751 10.9509348,2.33695877 11.1450056,2.1392613 Z M13.1450056,2.1392613 C13.3459907,1.95357957 13.6540312,1.95357957 13.8550163,2.1392613 C14.0490871,2.33689958 14.0482082,2.65599751 13.8530826,2.85257036 C13.6579571,3.04914321 13.3421234,3.04914321 13.1469392,2.85257036 C12.9517551,2.65599751 12.9509348,2.33695877 13.1450056,2.1392613 Z M16.1450056,2.1392613 C16.3459907,1.95357957 16.6540898,1.95357957 16.8550163,2.1392613 C17.0490871,2.33689958 17.0482082,2.65599751 16.8530826,2.85257036 C16.6579571,3.04914321 16.3421234,3.04914321 16.1469392,2.85257036 C15.9517551,2.65599751 15.9509348,2.33695877 16.1450056,2.1392613 Z" id="Shape"></path>
                                </g>
                            </g>
                        </g>
                    </g>
                </g>
            </g>
        </g>
    </g>
</svg>