<?xml version="1.0" encoding="UTF-8"?>
<svg width="25px" height="15px" viewBox="0 0 25 15" version="1.1" xmlns="http://www.w3.org/2000/svg" xmlns:xlink="http://www.w3.org/1999/xlink">
    <!-- Generator: Sketch 54.1 (76490) - https://sketchapp.com -->
    <title>groups icon</title>
    <desc>Created with Sketch.</desc>
    <g id="Dashboard" stroke="none" stroke-width="1" fill="none" fill-rule="evenodd">
        <g id="Dashboard---light-Copy" transform="translate(-60.000000, -173.000000)">
            <g id="side-menu" transform="translate(20.000000, 57.000000)">
                <g id="activities" transform="translate(0.000000, 41.000000)">
                    <g id="groups---selected-" transform="translate(40.000000, 70.000000)">
                        <g id="groups-icon">
                            <rect id="Rectangle" fill-opacity="0" fill="#D8D8D8" x="0" y="0" width="25" height="25"></rect>
                            <g id="group-(4)" transform="translate(0.000000, 5.000000)" fill="#297C81" fill-rule="nonzero">
                                <path d="M21.1178367,6.56518625 L17.9058023,6.56518625 C17.2419771,6.56475645 16.5893983,6.73653295 16.0118195,7.06375358 C15.5202006,7.34262178 15.094914,7.72485673 14.7654011,8.18409742 C14.5459169,8.14577364 14.3234957,8.12664756 14.1006447,8.12679083 L10.885745,8.12679083 C10.662894,8.12657593 10.4404728,8.14577364 10.2209885,8.18409742 C9.89154728,7.7247851 9.46626074,7.34255014 8.9745702,7.06375358 C8.3969914,6.73653295 7.74441261,6.56475645 7.08058739,6.56518625 L3.86855301,6.56518625 C1.73416905,6.56991404 0.00508595989,8.29899713 0.000358166189,10.4333811 L0.000358166189,12.6138968 C0.00193409742,12.8422636 0.187464183,13.0265043 0.415830946,13.0265043 L7.00608883,13.0265043 L7.00608883,14.1726361 C7.00608883,14.4020774 7.19212034,14.5881089 7.4215616,14.5881089 L17.5533668,14.5881089 C17.782808,14.5881089 17.9688395,14.4020774 17.9688395,14.1726361 L17.9688395,13.0265043 L24.5590974,13.0265043 C24.7885387,13.0265043 24.9745702,12.8404728 24.9745702,12.6110315 L24.9745702,10.4333811 C24.9698424,8.3034384 23.2477077,6.57621777 21.1178367,6.56518625 Z M7.04906877,11.6224928 L7.04906877,11.7113181 C7.04906877,11.7514327 7.04906877,11.7886819 7.04906877,11.8287966 L7.04906877,11.9949857 L7.04906877,12.1955587 L0.831303725,12.1955587 L0.831303725,10.4333811 C0.836031519,8.75787966 2.19305158,7.4008596 3.86855301,7.39613181 L7.08058739,7.39613181 C7.60071633,7.39555874 8.11210602,7.52979943 8.56482808,7.78581662 C8.86833811,7.95744986 9.14061605,8.17936963 9.36998567,8.44197708 C8.07707736,9.00315186 7.18911175,10.2200573 7.04906877,11.6224928 Z M17.129298,11.9949857 L17.129298,13.7600287 L7.8484957,13.7600287 L7.8484957,11.963467 C7.8484957,11.9310172 7.8484957,11.8994986 7.8484957,11.8689112 C7.8484957,11.8192693 7.8484957,11.7695559 7.8484957,11.719914 L7.8484957,11.6454155 C7.8484957,11.6167622 7.8484957,11.5881089 7.8484957,11.5594556 L7.8484957,11.467765 L7.8484957,11.4391117 L7.8484957,11.4075931 L7.8484957,11.3445559 L7.86568768,11.275788 L7.89434097,11.1726361 L7.91439828,11.1038682 C8.32600287,9.85637536 9.48904011,9.01174785 10.8026504,9.00644699 L10.885745,8.96060172 L14.1006447,8.96060172 C15.6262178,8.96618911 16.9128223,10.0984957 17.112106,11.6110315 C17.112106,11.6740688 17.112106,11.737106 17.129298,11.8001433 C17.129298,11.8651146 17.129298,11.9300143 17.129298,11.9949857 Z M24.155086,12.1984241 L17.9659742,12.1984241 L17.9659742,11.9491404 C17.9659742,11.9176218 17.9659742,11.8861032 17.9659742,11.8545845 C17.9659742,11.8221347 17.9659742,11.7896132 17.9659742,11.7571633 C17.9659742,11.7113181 17.9659742,11.6626074 17.9659742,11.6167622 L17.9659742,11.5737822 L17.9659742,11.5250716 L17.9659742,11.4362464 L17.9659742,11.4219198 L17.9659742,11.3875358 L17.9659742,11.3560172 L17.9659742,11.3359599 L17.9659742,11.2987106 L17.9659742,11.258596 L17.9659742,11.2385387 L17.9659742,11.2127507 L17.9659742,11.1869628 L17.9659742,11.1611748 L17.9659742,11.0981375 L17.9659742,11.0694842 L17.9659742,11.032235 L17.9659742,10.9949857 L17.9459169,10.9233524 L17.9459169,10.8946991 L17.9459169,10.8689112 L17.9459169,10.8488539 L17.9459169,10.8202006 L17.9459169,10.7829513 L17.9058023,10.6712034 C17.5324499,9.67872493 16.7709885,8.88108883 15.7969198,8.46203438 C15.9692693,8.20687679 16.1788682,7.97893983 16.4186963,7.78581662 C16.8714183,7.52979943 17.382808,7.39555874 17.902937,7.39613181 L21.1178367,7.39613181 C22.7932665,7.4008596 24.1503582,8.75787966 24.155086,10.4333811 L24.155086,12.1984241 Z M7.54190544,0.871776504 C8.08954155,1.42084527 8.39670487,2.16482808 8.39606017,2.94025788 C8.39462751,4.55601719 7.08373926,5.86461318 5.46797994,5.86318052 C3.85222063,5.86174785 2.54362464,4.55078797 2.54505731,2.93510029 C2.54648997,1.31934097 3.85744986,0.0107449857 5.47313754,0.0121776504 C6.24971347,0.0116045845 6.99441261,0.321060172 7.54190544,0.871776504 Z M6.95451289,4.41618911 C7.347851,4.02363897 7.56848138,3.49054441 7.56769341,2.93481375 C7.56755014,2.37936963 7.3467765,1.84670487 6.95393983,1.45401146 C6.13574499,0.636174785 4.80959885,0.636461318 3.99176218,1.45458453 C3.1739255,2.27277937 3.17421203,3.5989255 3.99233524,4.41676218 C4.81053009,5.23459885 6.13667622,5.23431232 6.95451289,4.41618911 Z M19.515616,0.00931232092 C21.1313037,0.0107449857 22.4399713,1.32163324 22.4385387,2.93739255 C22.437106,4.55315186 21.1261461,5.86174785 19.5104585,5.86031519 C18.7338825,5.86088825 17.9891834,5.55143266 17.4416905,5.00071633 C16.8940544,4.4517192 16.5868195,3.70766476 16.5875358,2.93223496 C16.5889685,1.31647564 17.8999284,0.00787965616 19.515616,0.00931232092 Z M20.9946275,4.41497135 C21.8124642,3.59684814 21.8121777,2.27063037 20.9940544,1.4527937 C20.1758596,0.63495702 18.8497135,0.635243553 18.0318768,1.45336676 C17.6385387,1.84591691 17.4179083,2.37901146 17.4186963,2.93474212 C17.4188395,3.49018625 17.6396132,4.022851 18.0324499,4.41554441 C18.8506447,5.23338109 20.1767908,5.23309456 20.9946275,4.41497135 Z M14.5576648,2.42335244 C15.7010029,3.56275072 15.7042264,5.41325215 14.5648281,6.55659026 C13.4254298,7.69992837 11.5749284,7.70315186 10.4315903,6.56375358 C9.28825215,5.4243553 9.28502865,3.57385387 10.4244269,2.43051576 C10.9719198,1.87979943 11.7166189,1.57034384 12.4931948,1.57091691 C13.2670487,1.57055874 14.0095272,1.87707736 14.5576648,2.42335244 Z M12.4926218,6.59326648 C13.6493553,6.59355301 14.5873926,5.65608883 14.5877507,4.49928367 C14.5885387,3.94355301 14.3679083,3.41045845 13.9745702,3.01790831 C13.5818768,2.62507163 13.049212,2.40429799 12.4937679,2.40415473 C11.3370344,2.40386819 10.3989255,3.34140401 10.398639,4.49813754 C10.3983524,5.65487106 11.3358166,6.59290831 12.4926218,6.59326648 Z" id="Shape"></path>
                            </g>
                        </g>
                    </g>
                </g>
            </g>
        </g>
    </g>
</svg>