<?xml version="1.0" encoding="UTF-8"?>
<svg width="32px" height="32px" viewBox="0 0 32 32" version="1.1" xmlns="http://www.w3.org/2000/svg" xmlns:xlink="http://www.w3.org/1999/xlink">
    <title>IG-grey</title>
    <g id="Template" stroke="none" stroke-width="1" fill="none" fill-rule="evenodd">
        <g id="Dashboard---light---Facebook-Templates---single-page" transform="translate(-770.000000, -373.000000)" fill="#4A4A4A" fill-rule="nonzero">
            <g id="tracked-groups" transform="translate(302.000000, 236.000000)">
                <g id="IG-grey" transform="translate(469.000000, 138.000000)">
                    <path d="M23,-0.6 L7,-0.6 C2.8026359,-0.6 -0.6,2.8026359 -0.6,7 L-0.6,23 C-0.6,27.1973641 2.8026359,30.6 7,30.6 L23,30.6 C27.1973641,30.6 30.6,27.1973641 30.6,23 L30.6,7 C30.6,2.8026359 27.1973641,-0.6 23,-0.6 Z M7,0.6 L23,0.6 C26.5346224,0.6 29.4,3.4653776 29.4,7 L29.4,23 C29.4,26.5346224 26.5346224,29.4 23,29.4 L7,29.4 C3.4653776,29.4 0.6,26.5346224 0.6,23 L0.6,7 C0.6,3.4653776 3.4653776,0.6 7,0.6 Z" id="Rectangle"></path>
                    <path d="M15,6.4 C10.2503512,6.4 6.4,10.2503512 6.4,15 C6.4,19.7496488 10.2503512,23.6 15,23.6 C19.7496488,23.6 23.6,19.7496488 23.6,15 C23.6,10.2503512 19.7496488,6.4 15,6.4 Z M15,7.6 C19.0869071,7.6 22.4,10.9130929 22.4,15 C22.4,19.0869071 19.0869071,22.4 15,22.4 C10.9130929,22.4 7.6,19.0869071 7.6,15 C7.6,10.9130929 10.9130929,7.6 15,7.6 Z" id="Oval"></path>
                    <path d="M25,2.4 C23.5640597,2.4 22.4,3.56405965 22.4,5 C22.4,6.43594035 23.5640597,7.6 25,7.6 C26.4359403,7.6 27.6,6.43594035 27.6,5 C27.6,3.56405965 26.4359403,2.4 25,2.4 Z M25,3.6 C25.7731986,3.6 26.4,4.22680135 26.4,5 C26.4,5.77319865 25.7731986,6.4 25,6.4 C24.2268014,6.4 23.6,5.77319865 23.6,5 C23.6,4.22680135 24.2268014,3.6 25,3.6 Z" id="Oval"></path>
                </g>
            </g>
        </g>
    </g>
</svg>