<?xml version="1.0" encoding="UTF-8"?>
<svg width="16px" height="20px" viewBox="0 0 16 20" version="1.1" xmlns="http://www.w3.org/2000/svg" xmlns:xlink="http://www.w3.org/1999/xlink">
    <!-- Generator: Sketch 54.1 (76490) - https://sketchapp.com -->
    <title>pages</title>
    <desc>Created with Sketch.</desc>
    <g id="Dashboard" stroke="none" stroke-width="1" fill="none" fill-rule="evenodd">
        <g id="Dashboard---light-Copy" transform="translate(-65.000000, -201.000000)">
            <g id="side-menu" transform="translate(20.000000, 57.000000)">
                <g id="activities" transform="translate(0.000000, 41.000000)">
                    <g id="pages" transform="translate(40.000000, 100.000000)">
                        <g id="pages---not-selected">
                            <g id="pages">
                                <rect id="Rectangle-Copy-2" fill-opacity="0" fill="#D8D8D8" x="0" y="0" width="25" height="25"></rect>
                                <g id="document" transform="translate(5.000000, 3.000000)" fill="#4A4A4A" fill-rule="nonzero">
                                    <path d="M0.00384446397,2.33331501 L0.00384446397,19.6666301 C0.00384446397,19.8507524 0.153092056,20 0.337214411,20 L13.0038994,20 C13.1878844,20 13.337132,19.8507524 13.337132,19.6666301 L13.337132,5.66673989 C13.337132,5.65932555 13.3335622,5.65300967 13.3328756,5.64573265 C13.331228,5.61648724 13.3254613,5.58765378 13.3158502,5.56005603 C13.312143,5.54934643 13.3095343,5.53904879 13.304866,5.52861378 C13.2886643,5.49236598 13.2661467,5.45927613 13.2381371,5.43099188 L9.90484953,2.09770432 C9.87656524,2.06955733 9.8433381,2.04703975 9.80681568,2.0309754 C9.79679262,2.02671902 9.78663227,2.02314917 9.77619726,2.01999121 C9.74832492,2.01038004 9.71935413,2.00461336 9.68983413,2.00269111 C9.68420475,2.00365223 9.67761424,2.00008239 9.67061181,2.00008239 L0.337214411,2.00008239 C0.153092056,2.00008239 0.00384446397,2.14919265 0.00384446397,2.33331501 Z M12.1991707,5.33336995 L10.0038445,5.33336995 L10.0038445,3.13804373 L12.1991707,5.33336995 Z M0.670447065,2.66668499 L9.33724186,2.66668499 L9.33724186,5.66673989 C9.33724186,5.85072496 9.48648946,5.99997255 9.67047452,5.99997255 L12.6705294,5.99997255 L12.6705294,19.3333974 L0.670447065,19.3333974 L0.670447065,2.66668499 Z M14.0038719,17.333315 L14.0038719,17.9999176 L15.0038445,17.9999176 C15.1879668,17.9999176 15.3372144,17.8508073 15.3372144,17.666685 L15.3372144,0.333369947 C15.3372144,0.149247592 15.1879668,0 15.0038445,0 L2.33715951,0 C2.15303712,0 2.00378953,0.149247592 2.00378953,0.333369947 L2.00378953,1.3333425 L2.67052942,1.3333425 L2.67052942,0.666602601 L14.6704745,0.666602601 L14.6704745,17.333315 L14.0038719,17.333315 Z M2.67052942,6.66671244 L10.6704471,6.66671244 L10.6704471,7.33331501 L2.67052942,7.33331501 L2.67052942,6.66671244 Z M2.67052942,4.66663005 L5.33721441,4.66663005 L5.33721441,5.33336995 L2.67052942,5.33336995 L2.67052942,4.66663005 Z M2.67052942,8.6666575 L8.0038994,8.6666575 L8.0038994,9.3333974 L2.67052942,9.3333974 L2.67052942,8.6666575 Z M8.67050197,8.6666575 L10.6704471,8.6666575 L10.6704471,9.3333974 L8.67050197,9.3333974 L8.67050197,8.6666575 Z M2.67052942,10.6666026 L10.6704471,10.6666026 L10.6704471,11.3333425 L2.67052942,11.3333425 L2.67052942,10.6666026 Z M2.67052942,14.6666301 L10.6704471,14.6666301 L10.6704471,15.3333699 L2.67052942,15.3333699 L2.67052942,14.6666301 Z M5.67044707,12.666685 L10.6704471,12.666685 L10.6704471,13.3332876 L5.67044707,13.3332876 L5.67044707,12.666685 Z M2.67052942,12.666685 L5.00384446,12.666685 L5.00384446,13.3332876 L2.67052942,13.3332876 L2.67052942,12.666685 Z M2.67052942,16.6667124 L4.00387192,16.6667124 L4.00387192,17.333315 L2.67052942,17.333315 L2.67052942,16.6667124 Z M4.67047452,16.6667124 L10.6704471,16.6667124 L10.6704471,17.333315 L4.67047452,17.333315 L4.67047452,16.6667124 Z" id="Shape"></path>
                                </g>
                            </g>
                        </g>
                    </g>
                </g>
            </g>
        </g>
    </g>
</svg>